<svg width="74" height="73" viewBox="0 0 74 73" fill="none" xmlns="http://www.w3.org/2000/svg">
<path fill-rule="evenodd" clip-rule="evenodd" d="M50.631 22.4313C49.1399 20.759 47.0153 19.6935 44.664 19.6549C40.1494 19.5808 36.489 23.3441 36.489 28.0601C36.489 28.7294 36.5613 29.3821 36.7007 30.0086C29.9066 29.5739 23.8828 26.0838 19.851 20.8229C19.1473 22.0835 18.7441 23.5569 18.7441 25.1353C18.7441 28.1232 20.1873 30.775 22.3808 32.3407C21.0408 32.2823 19.7803 31.8821 18.6781 31.2257C18.6773 31.2615 18.6773 31.2974 18.6773 31.334C18.6773 35.5066 21.4952 39.0072 25.235 39.8226C24.5491 40.0143 23.8268 40.1147 23.0813 40.1098C22.5546 40.1064 22.0423 40.0487 21.5433 39.9453C22.5834 43.3673 25.6024 45.8644 29.1798 45.9469C26.382 48.238 22.8572 49.6025 19.027 49.5947C18.3671 49.5933 17.7164 49.5513 17.0769 49.4704C20.6947 51.9192 24.9917 53.3449 29.6083 53.3461C44.6449 53.35 52.8677 40.4414 52.8677 29.2447C52.8677 28.8773 52.8595 28.512 52.844 28.1483C54.4412 26.9743 55.8271 25.5023 56.9231 23.8213C55.4571 24.4732 53.8814 24.9062 52.228 25.0878C53.9157 24.0632 55.2121 22.4232 55.8223 20.4567C54.2426 21.4017 52.4932 22.0794 50.631 22.4313Z" fill="white"/>
</svg>
