<svg width="54" height="54" viewBox="0 0 54 54" fill="none" xmlns="http://www.w3.org/2000/svg">
<path d="M26.8571 15.9048C20.1904 15.9048 14.6666 21.3334 14.6666 28.0953C14.6666 34.8572 20.0952 40.2857 26.8571 40.2857C33.619 40.2857 39.0476 34.7619 39.0476 28.0953C39.0476 21.4286 33.5238 15.9048 26.8571 15.9048ZM26.8571 35.9048C22.5714 35.9048 19.0476 32.381 19.0476 28.0953C19.0476 23.8095 22.5714 20.2857 26.8571 20.2857C31.1428 20.2857 34.6666 23.8095 34.6666 28.0953C34.6666 32.381 31.1428 35.9048 26.8571 35.9048Z" fill="white"/>
<path d="M39.5237 18.3807C41.0491 18.3807 42.2857 17.1442 42.2857 15.6188C42.2857 14.0935 41.0491 12.8569 39.5237 12.8569C37.9984 12.8569 36.7618 14.0935 36.7618 15.6188C36.7618 17.1442 37.9984 18.3807 39.5237 18.3807Z" fill="white"/>
<path d="M46.6666 8.47605C44.1904 5.90462 40.6666 4.57129 36.6666 4.57129H17.0476C8.76185 4.57129 3.23804 10.0951 3.23804 18.3808V37.9046C3.23804 41.9999 4.57137 45.5237 7.23804 48.0951C9.80946 50.5713 13.238 51.8094 17.1428 51.8094H36.5714C40.6666 51.8094 44.0952 50.476 46.5714 48.0951C49.1428 45.6189 50.4761 42.0951 50.4761 37.9999V18.3808C50.4761 14.3808 49.1428 10.9522 46.6666 8.47605ZM46.2857 37.9999C46.2857 40.9522 45.238 43.3332 43.5237 44.9522C41.8095 46.5713 39.4285 47.4284 36.5714 47.4284H17.1428C14.2857 47.4284 11.9047 46.5713 10.1904 44.9522C8.47613 43.238 7.61899 40.857 7.61899 37.9046V18.3808C7.61899 15.5237 8.47613 13.1427 10.1904 11.4284C11.8095 9.80938 14.2857 8.95224 17.1428 8.95224H36.7618C39.619 8.95224 41.9999 9.80938 43.7142 11.5237C45.3333 13.238 46.2857 15.6189 46.2857 18.3808V37.9999Z" fill="white"/>
</svg>
